{"title":"Animal.2014.WEBRip.XviD.AC3-N3kr4","uid":10394259,"size":1198713863,"categoryP":"video","categoryS":"hd___movies","magnet":"?xt=urn:btih:ce8830105e946a14700b4aa66584e1ecaee9316a&amp;dn=Animal.2014.WEBRip.XviD.AC3-N3kr4&amp;tr=udp%3A%2F%2Ftracker.openbittorrent.com%3A80&amp;tr=udp%3A%2F%2Fopen.demonii.com%3A1337&amp;tr=udp%3A%2F%2Ftracker.coppersurfer.tk%3A6969&amp;tr=udp%3A%2F%2Fexodus.desync.com%3A6969","seeders":1,"leechers":0,"uploader":"Falcon.G13","files":2,"time":1403241573,"description":"Animal (2014)\n86 min - Horror | Thriller - 13 June 2014 (USA)\n4.6 Your rating: -/10 Ratings: 4.6/10 from 328 users \nReviews: 7 user | 2 critic\n\nWhen plans for a weekend vacation hit\n a dead end, a group of close-knit friends \nfind themselves stranded in unfamiliar territory,\n pursued by a menacing, blood thirsty predator. \nHoled up in ...\n &lt;a href=&quot;\nhttp://i.imgur.com/1dh3JAk.jpg&quot; rel=&quot;nofollow&quot; target=&quot;_NEW&quot;&gt;\nhttp://i.imgur.com/1dh3JAk.jpg&lt;/a&gt; &lt;a href=&quot;\nhttp://i.imgur.com/yD9wAnV.jpg&quot; rel=&quot;nofollow&quot; target=&quot;_NEW&quot;&gt;\nhttp://i.imgur.com/yD9wAnV.jpg&lt;/a&gt; &lt;a href=&quot;\nhttp://i.imgur.com/4pRrDEH.jpg&quot; rel=&quot;nofollow&quot; target=&quot;_NEW&quot;&gt;\nhttp://i.imgur.com/4pRrDEH.jpg&lt;/a&gt; &lt;a href=&quot;\nhttp://i.imgur.com/tOWYTSz.jpg&quot; rel=&quot;nofollow&quot; target=&quot;_NEW&quot;&gt;\nhttp://i.imgur.com/tOWYTSz.jpg&lt;/a&gt; &lt;a href=&quot;\nhttp://i.imgur.com/egLak0K.jpg&quot; rel=&quot;nofollow&quot; target=&quot;_NEW&quot;&gt;\nhttp://i.imgur.com/egLak0K.jpg&lt;/a&gt; &lt;a href=&quot;\nhttp://i.imgur.com/PNjnuPe.jpg&quot; rel=&quot;nofollow&quot; target=&quot;_NEW&quot;&gt;\nhttp://i.imgur.com/PNjnuPe.jpg&lt;/a&gt; &lt;a href=&quot;\nhttp://i.imgur.com/JKnihcS.jpg&quot; rel=&quot;nofollow&quot; target=&quot;_NEW&quot;&gt;\nhttp://i.imgur.com/JKnihcS.jpg&lt;/a&gt; &lt;a href=&quot;\nhttp://i.imgur.com/BH8ANbN.jpg&quot; rel=&quot;nofollow&quot; target=&quot;_NEW&quot;&gt;\nhttp://i.imgur.com/BH8ANbN.jpg&lt;/a&gt;\n\nGeneral\nComplete name : Animal.2014.WEBRip.XviD.AC3-N3kr4.avi\nFormat : AVI\nFormat/Info : Audio Video Interleave\nFormat profile : OpenDML\nFile size : 1.12 GiB\nDuration : 1h 21mn\nOverall bit rate : 1 954 Kbps\nWriting application : Lavf55.7.100\n\nVideo\nID : 0\nFormat : MPEG-4 Visual\nFormat profile : Advanced Simple@L1\nFormat settings, BVOP : No\nFormat settings, QPel : No\nFormat settings, GMC : No warppoints\nFormat settings, Matrix : Default (H.263)\nCodec ID : XVID\nCodec ID/Hint : XviD\nDuration : 1h 21mn\nBit rate : 1 300 Kbps\nWidth : 720 pixels\nHeight : 304 pixels\nDisplay aspect ratio : 2.35:1\nFrame rate : 23.976 fps\nColor space : YUV\nChroma subsampling : 4:2:0\nBit depth : 8 bits\nScan type : Progressive\nCompression mode : Lossy\nBits/(Pixel*Frame) : 0.248\nStream size : 761 MiB (67%)\nWriting library : Lavc55.12.100\n\nAudio\nID : 1\nFormat : AC-3\nFormat/Info : Audio Coding 3\nMode extension : CM (complete main)\nFormat settings, Endianness : Big\nCodec ID : 2000\nDuration : 1h 21mn\nBit rate mode : Constant\nBit rate : 640 Kbps\nChannel(s) : 6 channels\nChannel positions : Front: L C R, Side: L R, LFE\nSampling rate : 48.0 KHz\nBit depth : 16 bits\nCompression mode : Lossy\nStream size : 374 MiB (33%)\nAlignment : Aligned on interleaves\nInterleave, duration : 32 ms (0.77 video frame)\nInterleave, preload duration : 32 ms","torrent":{"xt":"urn:btih:ce8830105e946a14700b4aa66584e1ecaee9316a","amp;dn":"Animal.2014.WEBRip.XviD.AC3-N3kr4","amp;tr":["udp%3A%2F%2Ftracker.openbittorrent.com%3A80","udp%3A%2F%2Fopen.demonii.com%3A1337","udp%3A%2F%2Ftracker.coppersurfer.tk%3A6969","udp%3A%2F%2Fexodus.desync.com%3A6969"],"infoHash":"ce8830105e946a14700b4aa66584e1ecaee9316a","infoHashBuffer":{"type":"Buffer","data":[206,136,48,16,94,148,106,20,112,11,74,166,101,132,225,236,174,233,49,106]},"announce":[],"urlList":[]}}